Coordinates
version=1
nRows=8
nColumns=40
inDegrees=yes

Units are S.I. units (second, meters, Newtons, ...)
If the header above contains a line with 'inDegrees', this indicates whether rotational values are in degrees (yes) or radians (no).

endheader
time	pelvis_tilt	pelvis_list	pelvis_rotation	pelvis_tx	pelvis_ty	pelvis_tz	hip_flexion_r	hip_adduction_r	hip_rotation_r	knee_angle_r	knee_angle_r_beta	ankle_angle_r	subtalar_angle_r	mtp_angle_r	hip_flexion_l	hip_adduction_l	hip_rotation_l	knee_angle_l	knee_angle_l_beta	ankle_angle_l	subtalar_angle_l	mtp_angle_l	lumbar_extension	lumbar_bending	lumbar_rotation	arm_flex_r	arm_add_r	arm_rot_r	elbow_flex_r	pro_sup_r	wrist_flex_r	wrist_dev_r	arm_flex_l	arm_add_l	arm_rot_l	elbow_flex_l	pro_sup_l	wrist_flex_l	wrist_dev_l
      7.32500000	     -5.79313460	     12.03828563	     89.98681297	      0.45403326	      0.84081623	     -0.63890080	     19.27843077	     29.62723571	     39.94206661	     40.17581026	      0.70120017	    -18.81433765	      0.00000000	      0.00000000	    -29.98021501	     -0.93345056	    -39.97987646	      0.11999431	      0.00209430	     16.14974149	      0.00000000	      0.00000000	     89.98377591	    -87.88550741	    -89.98368659	    -65.94532301	    -56.83248714	     89.68755912	      0.11740826	      1.17395779	      0.00000000	      0.00000000	     49.12629715	     64.37305304	     22.62252422	     14.13387341	      3.21327908	      0.00000000	      0.00000000
      7.33000000	     -5.94998774	     12.03111342	     89.98674439	      0.45401755	      0.84116507	     -0.63912049	     19.30747406	     29.51030502	     39.94225998	     40.32792839	      0.70385513	    -18.82840636	      0.00000000	      0.00000000	    -29.98006909	     -0.74603741	    -39.97988779	      0.11694140	      0.00204101	     15.87402199	      0.00000000	      0.00000000	     89.98370559	    -87.87121979	    -89.98362222	    -65.72146368	    -56.69399467	     89.68656878	      0.11680723	      1.14736991	      0.00000000	      0.00000000	     48.83640575	     64.26873133	     22.77746491	     14.34268025	      2.38859730	      0.00000000	      0.00000000
      7.33500000	     -6.12862160	     12.01929667	     89.98670215	      0.45400040	      0.84146453	     -0.63939058	     19.32983578	     29.35684276	     39.94261874	     40.44243386	      0.70585363	    -18.88384302	      0.00000000	      0.00000000	    -29.97997738	     -0.53646803	    -39.97990918	      0.11445154	      0.00199756	     15.68010946	      0.00000000	      0.00000000	     89.98366656	    -87.84089064	    -89.98358844	    -65.43090969	    -56.52463204	     89.68968699	      0.11652205	      1.14463328	      0.00000000	      0.00000000	     48.71113127	     64.15921114	     23.12356102	     14.33094579	      2.44042224	      0.00000000	      0.00000000
      7.34000000	     -6.31840482	     12.01436175	     89.98663809	      0.45392203	      0.84180670	     -0.63961730	     19.31770377	     29.17091868	     39.94271929	     40.53741778	      0.70751141	    -18.80933213	      0.00000000	      0.00000000	    -29.97987305	     -0.31707190	    -39.97991529	      0.11204306	      0.00195552	     15.52263484	      0.00000000	      0.00000000	     89.98364001	    -87.81555424	    -89.98356795	    -65.12594377	    -56.38954133	     89.69262298	      0.11648596	      1.13530265	      0.00000000	      0.00000000	     48.56112551	     64.02306849	     23.61084391	     14.31458492	      2.48121746	      0.00000000	      0.00000000
      7.34500000	     -6.53604627	     11.99711272	     89.98658565	      0.45367887	      0.84206496	     -0.63999394	     19.29410070	     28.92663333	     39.94314920	     40.58330432	      0.70831228	    -18.82063690	      0.00000000	      0.00000000	    -29.97984953	     -0.05580000	    -39.97992386	      0.10998123	      0.00191953	     15.37313004	      0.00000000	      0.00000000	     89.98363515	    -87.77571862	    -89.98357036	    -64.62593174	    -56.18555888	     89.69650421	      0.11595314	      1.26608663	      0.00000000	      0.00000000	     48.42433456	     63.91461432	     23.98447953	     14.13011119	      3.28709756	      0.00000000	      0.00000000
      7.35000000	     -6.72457905	     11.99797227	     89.98655200	      0.45364710	      0.84240683	     -0.64017305	     19.29344497	     28.75115846	     39.94301693	     40.69001834	      0.71017479	    -18.78531270	      0.00000000	      0.00000000	    -29.97976500	      0.14718862	    -39.97992655	      0.10835668	      0.00189118	     15.01652079	      0.00000000	      0.00000000	     89.98360536	    -87.75882953	    -89.98353994	    -64.39890354	    -56.06763892	     89.69723140	      0.11661486	      1.14081720	      0.00000000	      0.00000000	     48.20265148	     63.78573085	     24.19301365	     14.35045749	      2.50401997	      0.00000000	      0.00000000
      7.35500000	     -6.94069267	     11.99524418	     89.98650931	      0.45350615	      0.84269507	     -0.64042230	     19.27812820	     28.52789264	     39.94320207	     40.76726524	      0.71152301	    -18.77694483	      0.00000000	      0.00000000	    -29.97969246	      0.39091952	    -39.97992533	      0.10649911	      0.00185876	     14.70575639	      0.00000000	      0.00000000	     89.98357724	    -87.73195577	    -89.98351457	    -64.04777397	    -55.90726666	     89.69960918	      0.11668223	      1.14126839	      0.00000000	      0.00000000	     48.05115788	     63.66775096	     24.54016766	     14.29646078	      2.62231050	      0.00000000	      0.00000000
      7.36000000	     -7.16855158	     11.97625431	     89.98646748	      0.45327970	      0.84291017	     -0.64075586	     19.27554849	     28.29119940	     39.94336825	     40.86187598	      0.71317427	    -18.71434426	      0.00000000	      0.00000000	    -29.97963559	      0.65246237	    -39.97992227	      0.10482936	      0.00182962	     14.48605555	      0.00000000	      0.00000000	     89.98355627	    -87.69992338	    -89.98349447	    -63.62835242	    -55.71928189	     89.70241804	      0.11667699	      1.13957971	      0.00000000	      0.00000000	     47.86337928	     63.54922637	     24.85297133	     14.25476357	      2.60601723	      0.00000000	      0.00000000
